<?xml version="1.0" standalone="no"?>
<!DOCTYPE svg PUBLIC "-//W3C//DTD SVG 20010904//EN"
 "http://www.w3.org/TR/2001/REC-SVG-20010904/DTD/svg10.dtd">
<svg version="1.0" xmlns="http://www.w3.org/2000/svg"
 width="500.000000pt" height="500.000000pt" viewBox="0 0 500.000000 500.000000"
 preserveAspectRatio="xMidYMid meet">
<metadata>
Created by potrace 1.11, written by Peter Selinger 2001-2013
</metadata>
<g transform="translate(0.000000,500.000000) scale(0.100000,-0.100000)"
fill="#000000" stroke="none">
<path d="M1655 4944 c-727 -410 -1191 -1119 -1276 -1949 -14 -146 -7 -458 16
-598 102 -645 414 -1185 921 -1593 197 -159 503 -325 749 -407 150 -49 379
-99 537 -116 143 -16 425 -13 563 5 395 51 747 179 1065 388 270 178 532 437
702 694 l68 104 0 1289 0 1290 -44 67 c-238 361 -580 672 -934 851 l-61 31
-1103 0 -1103 0 -100 -56z m480 -1253 c106 -26 163 -51 261 -116 186 -124 306
-310 349 -540 23 -120 16 -333 -13 -456 -89 -366 -305 -635 -682 -848 -84 -48
-113 -51 -136 -16 -16 24 -15 27 12 66 93 131 124 203 124 286 l0 43 -97 0
c-538 0 -914 509 -764 1032 79 274 315 490 606 553 92 20 246 18 340 -4z
m1791 -1 c234 -59 432 -220 535 -435 125 -259 117 -603 -22 -913 -105 -233
-331 -464 -597 -609 -85 -47 -106 -51 -134 -26 -26 23 -23 40 20 97 76 100
112 187 112 268 l0 38 -99 0 c-293 0 -572 166 -705 419 -19 37 -47 107 -62
156 -37 124 -39 310 -5 430 85 303 308 512 616 580 93 21 248 18 341 -5z"/>
<path d="M1820 3595 c-225 -51 -392 -180 -489 -379 -52 -107 -71 -190 -71
-312 0 -120 17 -192 69 -299 128 -259 377 -402 686 -393 l109 3 15 -29 c19
-40 18 -178 -2 -236 -9 -24 -14 -46 -12 -49 9 -9 158 114 229 190 157 167 251
355 291 583 27 155 14 335 -34 470 -51 144 -168 288 -299 365 -136 81 -350
118 -492 86z"/>
<path d="M3605 3595 c-219 -49 -386 -178 -485 -375 -85 -169 -98 -362 -36
-541 72 -207 256 -380 469 -440 68 -20 106 -24 219 -24 96 0 141 -4 149 -12
21 -21 24 -181 6 -244 -9 -29 -14 -55 -12 -57 2 -3 42 25 88 61 216 169 352
380 418 652 28 115 31 321 6 435 -49 223 -226 432 -428 508 -133 49 -277 63
-394 37z"/>
</g>
</svg>
